# xmcd
#
# Track frame offsets: 
#        150
#        12216
#        23137
#        35539
#        47119
#        58963
#        71612
#        83564
#        95513
#        105779
#        117194
#        129646
#        141490
#        154749
#        166780
#        178449
#        190938
#        202709
#        215474
#        228219
#        238780
#        252771
#        262944
#        276178
#        289938
#
# Disc length: 4065 seconds
#
# Revision: 0
# Processed by: cddbd v1.5.1PL2 Copyright (c) Steve Scherf et al.
# Submitted via: ExactAudioCopy v0.95b3
#
DISCID=5f0fdf19
DTITLE=Big Joe Turner - Shout, Rattle And Roll [CD3]
DYEAR=2005
DGENRE=R&B
TTITLE0=Hollywood Bed
TTITLE1=Howlin' Winds
TTITLE2=Radar Blues
TTITLE3=Wine-O-Baby Boogie
TTITLE4=Christmas Date Boogie
TTITLE5=Tell Me Pretty Baby (How D'ya Want Your Rollin' Done)
TTITLE6=Old Piney Brown Is Gone
TTITLE7=My Heart Belongs To You
TTITLE8=I Don't Dig It (1)
TTITLE9=Rainy Weather Blues
TTITLE10=Boogie Woogie Baby
TTITLE11=I Love Ya I Love Ya I Love Ya
TTITLE12=Born To Gamble
TTITLE13=I Don't Dig It (2)
TTITLE14=Ooo-Ouch Stop
TTITLE15=Wish I Had A Dollar
TTITLE16=Fuzzy Wuzzy Honey
TTITLE17=Adam Bit The Apple
TTITLE18=Still In The Dark
TTITLE19=Just A Travelin' Man
TTITLE20=Life Is Just A Card Game
TTITLE21=Feeling Happy
TTITLE22=After A While
TTITLE23=When The Rooster Crows
TTITLE24=Dawn Is Breaking Through
EXTD=
EXTT0=
EXTT1=
EXTT2=
EXTT3=
EXTT4=
EXTT5=
EXTT6=
EXTT7=
EXTT8=
EXTT9=
EXTT10=
EXTT11=
EXTT12=
EXTT13=
EXTT14=
EXTT15=
EXTT16=
EXTT17=
EXTT18=
EXTT19=
EXTT20=
EXTT21=
EXTT22=
EXTT23=
EXTT24=
PLAYORDER=
